<svg width="1200" height="760" viewBox="0 0 1200 760" fill="none" xmlns="http://www.w3.org/2000/svg">
  <rect width="1200" height="760" rx="20" fill="#081931"/>
  <rect x="36" y="36" width="1128" height="688" rx="14" fill="#0D2648" stroke="#2F507F"/>

  <rect x="84" y="96" width="428" height="54" rx="12" fill="#113760"/>
  <text x="108" y="131" fill="#D8ECFF" font-size="24" font-family="Arial" font-weight="700">SoulDigger 企业智能软件能力图</text>

  <rect x="84" y="184" width="328" height="220" rx="12" fill="#102D52" stroke="#365E8E"/>
  <text x="104" y="220" fill="#B6D6F7" font-size="20" font-family="Arial">调研执行系统</text>
  <text x="104" y="252" fill="#9EC0E8" font-size="15" font-family="Arial">任务编排 · 现场采集 · 质量审核</text>
  <rect x="104" y="282" width="250" height="12" rx="6" fill="#275A8B"/>
  <rect x="104" y="306" width="218" height="12" rx="6" fill="#2B6EA0"/>
  <rect x="104" y="330" width="236" height="12" rx="6" fill="#3D85B7"/>

  <rect x="436" y="184" width="328" height="220" rx="12" fill="#133555" stroke="#3C7A95"/>
  <text x="456" y="220" fill="#BCE5EA" font-size="20" font-family="Arial">数据分析平台</text>
  <text x="456" y="252" fill="#A5D4DE" font-size="15" font-family="Arial">指标体系 · 趋势分析 · 经营洞察</text>
  <rect x="456" y="282" width="250" height="12" rx="6" fill="#2A6076"/>
  <rect x="456" y="306" width="218" height="12" rx="6" fill="#2E7386"/>
  <rect x="456" y="330" width="236" height="12" rx="6" fill="#338798"/>

  <rect x="788" y="184" width="328" height="220" rx="12" fill="#12334A" stroke="#3A8B9A"/>
  <text x="808" y="220" fill="#C8EFF0" font-size="20" font-family="Arial">智能协同平台</text>
  <text x="808" y="252" fill="#A9DCE0" font-size="15" font-family="Arial">风险提示 · 决策建议 · 协同闭环</text>
  <rect x="808" y="282" width="250" height="12" rx="6" fill="#1B5568"/>
  <rect x="808" y="306" width="218" height="12" rx="6" fill="#216B79"/>
  <rect x="808" y="330" width="236" height="12" rx="6" fill="#2C7F87"/>

  <rect x="84" y="436" width="1032" height="240" rx="12" fill="#0E213C" stroke="#2E4E78"/>
  <text x="106" y="474" fill="#B6D7FC" font-size="20" font-family="Arial" font-weight="700">统一技术底座</text>
  <text x="106" y="505" fill="#8FB3DD" font-size="15" font-family="Arial">多租户架构 · 权限治理 · 审计留痕 · 接口开放 · 持续交付</text>

  <rect x="106" y="530" width="232" height="112" rx="10" fill="#13335A"/>
  <text x="126" y="572" fill="#D9ECFF" font-size="18" font-family="Arial" font-weight="700">工程体系</text>
  <text x="126" y="600" fill="#A9C7E6" font-size="14" font-family="Arial">标准化开发与测试</text>

  <rect x="360" y="530" width="232" height="112" rx="10" fill="#114153"/>
  <text x="380" y="572" fill="#E1F7F9" font-size="18" font-family="Arial" font-weight="700">数据体系</text>
  <text x="380" y="600" fill="#A7D5D8" font-size="14" font-family="Arial">指标治理与数据可信</text>

  <rect x="614" y="530" width="232" height="112" rx="10" fill="#163F3E"/>
  <text x="634" y="572" fill="#E0F6F0" font-size="18" font-family="Arial" font-weight="700">交付体系</text>
  <text x="634" y="600" fill="#AFDCD2" font-size="14" font-family="Arial">方法论与陪跑落地</text>

  <rect x="868" y="530" width="228" height="112" rx="10" fill="#2C3F45"/>
  <text x="888" y="572" fill="#EAF8FF" font-size="18" font-family="Arial" font-weight="700">智能体系</text>
  <text x="888" y="600" fill="#BDD5DD" font-size="14" font-family="Arial">可控边界内的智能化</text>
</svg>
