<svg width="1200" height="760" viewBox="0 0 1200 760" fill="none" xmlns="http://www.w3.org/2000/svg">
  <rect width="1200" height="760" rx="20" fill="#091B34"/>
  <rect x="36" y="36" width="1128" height="688" rx="14" fill="#0F2647" stroke="#2F507F"/>

  <rect x="84" y="96" width="292" height="54" rx="12" fill="#113760"/>
  <text x="108" y="131" fill="#D8ECFF" font-size="24" font-family="Arial" font-weight="700">Vantara Dashboard</text>

  <rect x="84" y="184" width="222" height="220" rx="12" fill="#102D52" stroke="#365E8E"/>
  <text x="104" y="220" fill="#B6D6F7" font-size="18" font-family="Arial">Projects</text>
  <rect x="104" y="244" width="182" height="14" rx="7" fill="#275A8B"/>
  <rect x="104" y="270" width="152" height="14" rx="7" fill="#2B6EA0"/>
  <rect x="104" y="296" width="168" height="14" rx="7" fill="#3D85B7"/>

  <rect x="328" y="184" width="344" height="220" rx="12" fill="#133555" stroke="#3C7A95"/>
  <text x="348" y="220" fill="#BCE5EA" font-size="18" font-family="Arial">Execution Flow</text>
  <circle cx="390" cy="290" r="26" fill="#2F8EA5"/>
  <circle cx="498" cy="290" r="26" fill="#3AA8B7"/>
  <circle cx="606" cy="290" r="26" fill="#4FC3BD"/>
  <line x1="416" y1="290" x2="472" y2="290" stroke="#7CCED2" stroke-width="4"/>
  <line x1="524" y1="290" x2="580" y2="290" stroke="#85D9CC" stroke-width="4"/>
  <text x="366" y="338" fill="#CDEBE8" font-size="14" font-family="Arial">Plan</text>
  <text x="474" y="338" fill="#CDEBE8" font-size="14" font-family="Arial">Collect</text>
  <text x="584" y="338" fill="#CDEBE8" font-size="14" font-family="Arial">Review</text>

  <rect x="694" y="184" width="422" height="220" rx="12" fill="#12334A" stroke="#3A8B9A"/>
  <text x="716" y="220" fill="#C8EFF0" font-size="18" font-family="Arial">Quality & Alerts</text>
  <rect x="716" y="246" width="380" height="34" rx="8" fill="#1B5568"/>
  <rect x="716" y="288" width="308" height="34" rx="8" fill="#216B79"/>
  <rect x="716" y="330" width="346" height="34" rx="8" fill="#2C7F87"/>

  <rect x="84" y="436" width="1032" height="240" rx="12" fill="#0E213C" stroke="#2E4E78"/>
  <text x="106" y="474" fill="#B6D7FC" font-size="20" font-family="Arial" font-weight="700">Unified Data Layer</text>
  <text x="106" y="505" fill="#8FB3DD" font-size="15" font-family="Arial">Task status · Media evidence · Review actions · Issue closure · KPI trends</text>

  <rect x="106" y="530" width="232" height="112" rx="10" fill="#13335A"/>
  <text x="126" y="572" fill="#D9ECFF" font-size="18" font-family="Arial" font-weight="700">Backoffice</text>
  <text x="126" y="600" fill="#A9C7E6" font-size="14" font-family="Arial">Config & Governance</text>

  <rect x="360" y="530" width="232" height="112" rx="10" fill="#114153"/>
  <text x="380" y="572" fill="#E1F7F9" font-size="18" font-family="Arial" font-weight="700">Mobile App</text>
  <text x="380" y="600" fill="#A7D5D8" font-size="14" font-family="Arial">Capture & Upload</text>

  <rect x="614" y="530" width="232" height="112" rx="10" fill="#163F3E"/>
  <text x="634" y="572" fill="#E0F6F0" font-size="18" font-family="Arial" font-weight="700">QA Engine</text>
  <text x="634" y="600" fill="#AFDCD2" font-size="14" font-family="Arial">Rules & Review</text>

  <rect x="868" y="530" width="228" height="112" rx="10" fill="#2C3F45"/>
  <text x="888" y="572" fill="#EAF8FF" font-size="18" font-family="Arial" font-weight="700">AI Assist</text>
  <text x="888" y="600" fill="#BDD5DD" font-size="14" font-family="Arial">Summary & Suggestions</text>
</svg>
